<svg width="37" height="37" viewBox="0 0 150 150" fill="none" xmlns="http://www.w3.org/2000/svg">
<path d="M31.1806 15C30.8667 75.9223 32.6191 98.4807 36.8125 132.291" stroke="currentColor" stroke-width="11" stroke-linecap="round" stroke-linejoin="round"/>
<path d="M121.769 28.3859C116.444 73.0819 115.31 115.719 117.712 131.807" stroke="currentColor" stroke-width="11" stroke-linecap="round" stroke-linejoin="round"/>
<path d="M95.79 102.469C94.9327 125.453 80.2803 133.913 62.6194 133.254C44.9586 132.595 33.6739 117.838 34.3327 100.177C34.9915 82.5159 47.5492 63.1436 65.21 63.8023C82.8708 64.4611 96.4487 84.8082 95.79 102.469Z" stroke="currentColor" stroke-width="11" stroke-linecap="round" stroke-linejoin="round"/>
<path d="M102.475 84.2056C95.1815 97.5274 84.518 109.554 71.5271 109.069C57.2192 108.536 56.5038 96.0002 61.0042 82.6587C65.5046 69.3172 97.3067 34.9787 121.57 28.3785C118.825 48.29 106.234 77.3409 102.475 84.2056Z" stroke="currentColor" stroke-width="11" stroke-linecap="round" stroke-linejoin="round"/>
</svg>
