<svg width="1100" height="150" viewBox="0 0 1100 150" fill="none" xmlns="http://www.w3.org/2000/svg">
<rect width="1100" height="150" fill="#E5E5E5"/>
<path d="M31.1806 15C30.8667 75.9223 32.6191 98.4807 36.8125 132.291" stroke="black" stroke-width="11" stroke-linecap="round" stroke-linejoin="round"/>
<path d="M121.769 28.3859C116.444 73.0819 115.31 115.719 117.712 131.807" stroke="black" stroke-width="11" stroke-linecap="round" stroke-linejoin="round"/>
<path d="M95.79 102.469C94.9327 125.453 80.2803 133.913 62.6194 133.254C44.9586 132.595 33.6739 117.838 34.3327 100.177C34.9915 82.5159 47.5492 63.1436 65.21 63.8023C82.8708 64.4611 96.4487 84.8082 95.79 102.469Z" stroke="black" stroke-width="11" stroke-linecap="round" stroke-linejoin="round"/>
<path d="M102.475 84.2056C95.1815 97.5274 84.518 109.554 71.5271 109.069C57.2192 108.536 56.5038 96.0002 61.0042 82.6587C65.5046 69.3172 97.3067 34.9787 121.57 28.3785C118.825 48.29 106.234 77.3409 102.475 84.2056Z" stroke="black" stroke-width="11" stroke-linecap="round" stroke-linejoin="round"/>
<g clip-path="url(#clip0_210_2)">
<rect x="380" width="150" height="150" rx="27" fill="#CED2CD"/>
<path d="M411.181 15C410.867 75.9223 412.619 98.4807 416.813 132.291" stroke="#080B24" stroke-width="11" stroke-linecap="round" stroke-linejoin="round"/>
<path d="M501.769 28.3859C496.444 73.0819 495.31 115.719 497.712 131.807" stroke="#080B24" stroke-width="11" stroke-linecap="round" stroke-linejoin="round"/>
<path d="M482.475 84.2056C475.182 97.5274 464.518 109.554 451.527 109.069C437.219 108.536 436.504 96.0002 441.004 82.6587C445.505 69.3172 477.307 34.9787 501.57 28.3785C498.825 48.29 486.234 77.3409 482.475 84.2056Z" fill="#0C3559" stroke="black" stroke-width="11" stroke-linecap="round" stroke-linejoin="round"/>
<path d="M475.79 102.469C474.933 125.453 460.28 133.913 442.619 133.254C424.959 132.595 413.674 117.838 414.333 100.177C414.991 82.5159 427.549 63.1436 445.21 63.8023C462.871 64.4611 476.449 84.8082 475.79 102.469Z" fill="white" stroke="black" stroke-width="11" stroke-linecap="round" stroke-linejoin="round"/>
<path d="M469.893 94.1108C468.563 95.6555 467.188 97.0741 465.773 98.3369C460.972 102.623 456.115 104.776 451.218 104.605C448.262 104.502 446.579 103.8 445.615 103.102C444.696 102.437 443.991 101.462 443.543 99.9224C442.548 96.4994 443.073 91.0372 445.325 84.2935C446.192 81.6977 448.691 77.3846 452.815 71.9785C453.052 71.6678 453.293 71.3549 453.539 71.04C457.045 73.0042 460.288 75.9364 463.055 79.622C466.286 83.9253 468.648 88.9862 469.893 94.1108Z" fill="#69635E"/>
<path d="M475.79 102.469C474.933 125.453 460.28 133.913 442.619 133.254C424.959 132.595 413.674 117.838 414.333 100.177C414.991 82.5159 427.549 63.1436 445.21 63.8023C462.871 64.4611 476.449 84.8082 475.79 102.469Z" stroke="#080B24" stroke-width="11" stroke-linecap="round" stroke-linejoin="round"/>
<path d="M482.475 84.2056C475.182 97.5274 464.518 109.554 451.527 109.069C437.219 108.536 436.504 96.0002 441.004 82.6587C445.505 69.3172 477.307 34.9787 501.57 28.3785C498.825 48.29 486.234 77.3409 482.475 84.2056Z" stroke="#080B24" stroke-width="11" stroke-linecap="round" stroke-linejoin="round"/>
</g>
<rect width="150" height="150" transform="translate(760)" fill="#080B24"/>
<path d="M791.181 15C790.867 75.9223 792.619 98.4807 796.812 132.291" stroke="#CED2CD" stroke-width="11" stroke-linecap="round" stroke-linejoin="round"/>
<path d="M881.769 28.3859C876.444 73.0819 875.31 115.719 877.712 131.807" stroke="#CED2CD" stroke-width="11" stroke-linecap="round" stroke-linejoin="round"/>
<path d="M862.475 84.2056C855.182 97.5274 844.518 109.554 831.527 109.069C817.219 108.536 816.504 96.0002 821.004 82.6587C825.505 69.3172 857.307 34.9787 881.57 28.3785C878.825 48.29 866.234 77.3409 862.475 84.2056Z" fill="#0C3559" stroke="#CED2CD" stroke-width="11" stroke-linecap="round" stroke-linejoin="round"/>
<path d="M855.79 102.469C854.933 125.453 840.28 133.913 822.619 133.254C804.959 132.595 793.674 117.838 794.333 100.177C794.991 82.5159 807.549 63.1436 825.21 63.8023C842.871 64.4611 856.449 84.8082 855.79 102.469Z" fill="#0C3559" stroke="#CED2CD" stroke-width="11" stroke-linecap="round" stroke-linejoin="round"/>
<path d="M849.893 94.1108C848.563 95.6555 847.188 97.0741 845.773 98.3369C840.972 102.623 836.115 104.776 831.218 104.605C828.262 104.502 826.579 103.8 825.615 103.102C824.696 102.437 823.991 101.462 823.543 99.9224C822.548 96.4994 823.073 91.0372 825.325 84.2935C826.192 81.6977 828.691 77.3846 832.815 71.9785C833.052 71.6678 833.293 71.3549 833.539 71.04C837.045 73.0042 840.288 75.9364 843.055 79.622C846.286 83.9253 848.648 88.9862 849.893 94.1108Z" fill="#0C3559"/>
<path d="M855.79 102.469C854.933 125.453 840.28 133.913 822.619 133.254C804.959 132.595 793.674 117.838 794.333 100.177C794.991 82.5159 807.549 63.1436 825.21 63.8023C842.871 64.4611 856.449 84.8082 855.79 102.469Z" stroke="#CED2CD" stroke-width="11" stroke-linecap="round" stroke-linejoin="round"/>
<path d="M862.475 84.2056C855.182 97.5274 844.518 109.554 831.527 109.069C817.219 108.536 816.504 96.0002 821.004 82.6587C825.505 69.3172 857.307 34.9787 881.57 28.3785C878.825 48.29 866.234 77.3409 862.475 84.2056Z" stroke="#CED2CD" stroke-width="11" stroke-linecap="round" stroke-linejoin="round"/>
<rect width="150" height="150" transform="translate(950)" fill="#080B24"/>
<path d="M981.181 15C980.867 75.9223 982.619 98.4807 986.812 132.291" stroke="#305789" stroke-width="11" stroke-linecap="round" stroke-linejoin="round"/>
<path d="M1071.77 28.3859C1066.44 73.0819 1065.31 115.719 1067.71 131.807" stroke="#305789" stroke-width="11" stroke-linecap="round" stroke-linejoin="round"/>
<path d="M1052.48 84.2056C1045.18 97.5274 1034.52 109.554 1021.53 109.069C1007.22 108.536 1006.5 96.0002 1011 82.6587C1015.5 69.3172 1047.31 34.9787 1071.57 28.3785C1068.83 48.29 1056.23 77.3409 1052.48 84.2056Z" fill="#080B24" stroke="#CED2CD" stroke-width="11" stroke-linecap="round" stroke-linejoin="round"/>
<path d="M1045.79 102.469C1044.93 125.453 1030.28 133.913 1012.62 133.254C994.959 132.595 983.674 117.838 984.333 100.177C984.991 82.5159 997.549 63.1436 1015.21 63.8023C1032.87 64.4611 1046.45 84.8082 1045.79 102.469Z" fill="white" stroke="#CED2CD" stroke-width="11" stroke-linecap="round" stroke-linejoin="round"/>
<path d="M1039.89 94.1108C1038.56 95.6555 1037.19 97.0741 1035.77 98.3369C1030.97 102.623 1026.12 104.776 1021.22 104.605C1018.26 104.502 1016.58 103.8 1015.61 103.102C1014.7 102.437 1013.99 101.462 1013.54 99.9224C1012.55 96.4994 1013.07 91.0372 1015.33 84.2935C1016.19 81.6977 1018.69 77.3846 1022.82 71.9785C1023.05 71.6678 1023.29 71.3549 1023.54 71.04C1027.05 73.0042 1030.29 75.9364 1033.06 79.622C1036.29 83.9253 1038.65 88.9862 1039.89 94.1108Z" fill="#0C3559"/>
<path d="M1045.79 102.469C1044.93 125.453 1030.28 133.913 1012.62 133.254C994.959 132.595 983.674 117.838 984.333 100.177C984.991 82.5159 997.549 63.1436 1015.21 63.8023C1032.87 64.4611 1046.45 84.8082 1045.79 102.469Z" stroke="#305789" stroke-width="11" stroke-linecap="round" stroke-linejoin="round"/>
<path d="M1052.48 84.2056C1045.18 97.5274 1034.52 109.554 1021.53 109.069C1007.22 108.536 1006.5 96.0002 1011 82.6587C1015.5 69.3172 1047.31 34.9787 1071.57 28.3785C1068.83 48.29 1056.23 77.3409 1052.48 84.2056Z" stroke="#305789" stroke-width="11" stroke-linecap="round" stroke-linejoin="round"/>
<rect width="150" height="150" transform="translate(570)" fill="#CED2CD"/>
<path d="M601.181 15C600.867 75.9223 602.619 98.4807 606.813 132.291" stroke="#080B24" stroke-width="11" stroke-linecap="round" stroke-linejoin="round"/>
<path d="M691.769 28.3859C686.444 73.0819 685.31 115.719 687.712 131.807" stroke="#080B24" stroke-width="11" stroke-linecap="round" stroke-linejoin="round"/>
<path d="M672.475 84.2056C665.182 97.5274 654.518 109.554 641.527 109.069C627.219 108.536 626.504 96.0002 631.004 82.6587C635.505 69.3172 667.307 34.9787 691.57 28.3785C688.825 48.29 676.234 77.3409 672.475 84.2056Z" fill="#0C3559" stroke="black" stroke-width="11" stroke-linecap="round" stroke-linejoin="round"/>
<path d="M665.79 102.469C664.933 125.453 650.28 133.913 632.619 133.254C614.959 132.595 603.674 117.838 604.333 100.177C604.991 82.5159 617.549 63.1436 635.21 63.8023C652.871 64.4611 666.449 84.8082 665.79 102.469Z" fill="#D9AA52" stroke="black" stroke-width="11" stroke-linecap="round" stroke-linejoin="round"/>
<path d="M659.893 94.1108C658.563 95.6555 657.188 97.0741 655.773 98.3369C650.972 102.623 646.115 104.776 641.218 104.605C638.262 104.502 636.579 103.8 635.615 103.102C634.696 102.437 633.991 101.462 633.543 99.9224C632.548 96.4994 633.073 91.0372 635.325 84.2935C636.192 81.6977 638.691 77.3846 642.815 71.9785C643.052 71.6678 643.293 71.3549 643.539 71.04C647.045 73.0042 650.288 75.9364 653.055 79.622C656.286 83.9253 658.648 88.9862 659.893 94.1108Z" fill="#8C3623"/>
<path d="M665.79 102.469C664.933 125.453 650.28 133.913 632.619 133.254C614.959 132.595 603.674 117.838 604.333 100.177C604.991 82.5159 617.549 63.1436 635.21 63.8023C652.871 64.4611 666.449 84.8082 665.79 102.469Z" stroke="#080B24" stroke-width="11" stroke-linecap="round" stroke-linejoin="round"/>
<path d="M672.475 84.2056C665.182 97.5274 654.518 109.554 641.527 109.069C627.219 108.536 626.504 96.0002 631.004 82.6587C635.505 69.3172 667.307 34.9787 691.57 28.3785C688.825 48.29 676.234 77.3409 672.475 84.2056Z" stroke="#080B24" stroke-width="11" stroke-linecap="round" stroke-linejoin="round"/>
<rect width="150" height="150" transform="translate(190)" fill="#69635E"/>
<path d="M226.353 17C220.892 17.6903 215.926 20.9473 211.929 26.0762C207.227 32.1116 204.312 40.2526 204.024 47.9579C203.456 63.1903 212.968 74.8099 227.02 75.3341C234.995 75.6315 241.596 73.8405 246.212 70.0521C249.718 67.1754 252.557 62.7541 253.819 56.0589C248.585 59.8776 242.438 62.3997 235.517 62.1416C231.153 61.9789 227.286 60.8777 224.177 58.6202C221.026 56.3315 219.109 53.1841 218.123 49.768C216.245 43.2598 217.63 35.468 219.988 28.4769C221.117 25.1299 223.418 21.1495 226.353 17Z" fill="#D9D9D9"/>
<path d="M237.734 109.139C236.226 110.33 234.698 111.397 233.16 112.312C227.943 115.418 223.056 116.542 218.547 115.507C215.826 114.882 214.391 113.931 213.622 113.113C212.889 112.333 212.409 111.305 212.269 109.8C211.958 106.454 213.421 101.494 216.714 95.6564C217.981 93.4096 221.068 89.8656 225.858 85.6013C226.133 85.3562 226.413 85.1099 226.696 84.8625C229.596 87.3077 232.078 90.6015 233.985 94.5073C236.211 99.0678 237.496 104.174 237.734 109.139Z" fill="#D9D9D9"/>
<path d="M277.227 72.9703C280.617 73.9828 284.107 74.6293 287.573 74.882C292.384 75.2328 297.331 74.8315 302.001 73.4879C302.318 76.4337 302.562 79.4967 302.716 82.6179C303.294 94.2813 302.604 106.17 300.236 115.633C295.978 109.6 291.798 102.59 288.148 95.8807C282.797 86.0473 278.835 77.3311 277.604 74.0083C277.476 73.6625 277.35 73.3165 277.227 72.9703Z" fill="#D9D9D9"/>
<path fill-rule="evenodd" clip-rule="evenodd" d="M277.893 16.0961C273.191 22.1314 270.275 30.2725 269.988 37.9778C269.42 53.2102 278.931 64.8298 292.983 65.3539C300.959 65.6514 307.559 63.8604 312.176 60.072C316.669 56.3845 320.069 50.1593 320.453 39.8601C320.73 32.4158 317.972 24.1286 313.125 17.6511C308.273 11.1668 301.856 7.14419 295.164 6.89458C288.586 6.64922 282.574 10.0885 277.893 16.0961Z" fill="black"/>
<path fill-rule="evenodd" clip-rule="evenodd" d="M247.973 107.428C247.168 113.79 247.173 118.49 247.695 121.016C249.052 127.579 251.212 132.278 253.646 134.595C254.741 135.637 255.778 136.096 256.843 136.201C257.961 136.312 259.667 136.085 262.128 134.767C266.206 132.581 269.149 128.522 271.038 122.751C272.933 116.959 273.594 109.912 273.39 102.683C273.289 99.141 272.331 89.6145 270.415 78.5847C269.108 71.0597 267.397 63.0793 265.298 56C260.02 64.2041 255.555 75.2436 252.363 86.4766C250.244 93.9336 248.757 101.227 247.973 107.428Z" fill="black"/>
<defs>
<clipPath id="clip0_210_2">
<rect width="150" height="150" fill="white" transform="translate(380)"/>
</clipPath>
</defs>
</svg>
